HIERARCHY
ROOT Hips
{
	OFFSET 0.000000 0.000000 0.000000
	CHANNELS 6 Xposition Yposition Zposition Zrotation Yrotation Xrotation 
	JOINT LHipJoint
	{
		OFFSET 0.000000 0.000000 0.000000
		CHANNELS 3 Zrotation Yrotation Xrotation
		JOINT LeftUpLeg
		{
			OFFSET 1.363060 -1.794630 0.839290
			CHANNELS 3 Zrotation Yrotation Xrotation
			JOINT LeftLeg
			{
				OFFSET 2.448110 -6.726130 0.000000
				CHANNELS 3 Zrotation Yrotation Xrotation
				JOINT LeftFoot
				{
					OFFSET 2.562200 -7.039590 0.000000
					CHANNELS 3 Zrotation Yrotation Xrotation
					JOINT LeftToeBase
					{
						OFFSET 0.157640 -0.433110 2.322550
						CHANNELS 3 Zrotation Yrotation Xrotation
						End Site
						{
							OFFSET 0.000000 0.000000 0.000000
						}
					}
				}
			}
		}
	}
	JOINT RHipJoint
	{
		OFFSET 0.000000 0.000000 0.000000
		CHANNELS 3 Zrotation Yrotation Xrotation
		JOINT RightUpLeg
		{
			OFFSET -1.305520 -1.794630 0.839290
			CHANNELS 3 Zrotation Yrotation Xrotation
			JOINT RightLeg
			{
				OFFSET -2.542530 -6.985550 0.000000
				CHANNELS 3 Zrotation Yrotation Xrotation
				JOINT RightFoot
				{
					OFFSET -2.568260 -7.056230 0.000000
					CHANNELS 3 Zrotation Yrotation Xrotation
					JOINT RightToeBase
					{
						OFFSET -0.164730 -0.452590 2.363150
						CHANNELS 3 Zrotation Yrotation Xrotation
						End Site
						{
							OFFSET 0.000000 0.000000 0.000000
						}
					}
				}
			}
		}
	}
	JOINT LowerBack
	{
		OFFSET 0.000000 0.000000 0.000000
		CHANNELS 3 Zrotation Yrotation Xrotation
		JOINT Spine
		{
			OFFSET 0.028270 2.035590 -0.193380
			CHANNELS 3 Zrotation Yrotation Xrotation
			JOINT Spine1
			{
				OFFSET 0.056720 2.048850 -0.042750
				CHANNELS 3 Zrotation Yrotation Xrotation
				JOINT Neck
				{
					OFFSET 0.000000 0.000000 0.000000
					CHANNELS 3 Zrotation Yrotation Xrotation
					JOINT Neck1
					{
						OFFSET -0.054170 1.746240 0.172020
						CHANNELS 3 Zrotation Yrotation Xrotation
						JOINT Head
						{
							OFFSET 0.104070 1.761360 -0.123970
							CHANNELS 3 Zrotation Yrotation Xrotation
							End Site
							{
								OFFSET 0.000000 0.000000 0.000000
							}
						}
					}
				}
				JOINT LeftShoulder
				{
					OFFSET 0.000000 0.000000 0.000000
					CHANNELS 3 Zrotation Yrotation Xrotation
					JOINT LeftArm
					{
						OFFSET 3.362410 1.200890 -0.311210
						CHANNELS 3 Zrotation Yrotation Xrotation
						JOINT LeftForeArm
						{
							OFFSET 4.983000 -0.000000 -0.000000
							CHANNELS 3 Zrotation Yrotation Xrotation
							JOINT LeftHand
							{
								OFFSET 3.483560 -0.000000 -0.000000
								CHANNELS 3 Zrotation Yrotation Xrotation
								JOINT LeftFingerBase
								{
									OFFSET 0.000000 0.000000 0.000000
									CHANNELS 3 Zrotation Yrotation Xrotation
									JOINT LeftHandIndex1
									{
										OFFSET 0.715260 -0.000000 -0.000000
										CHANNELS 3 Zrotation Yrotation Xrotation
										End Site
										{
											OFFSET 0.000000 0.000000 0.000000
										}
									}
								}
								JOINT LThumb
								{
									OFFSET 0.000000 0.000000 0.000000
									CHANNELS 3 Zrotation Yrotation Xrotation
									End Site
									{
										OFFSET 0.000000 0.000000 0.000000
									}
								}
							}
						}
					}
				}
				JOINT RightShoulder
				{
					OFFSET 0.000000 0.000000 0.000000
					CHANNELS 3 Zrotation Yrotation Xrotation
					JOINT RightArm
					{
						OFFSET -3.136600 1.374050 -0.404650
						CHANNELS 3 Zrotation Yrotation Xrotation
						JOINT RightForeArm
						{
							OFFSET -5.241900 -0.000000 -0.000000
							CHANNELS 3 Zrotation Yrotation Xrotation
							JOINT RightHand
							{
								OFFSET -3.444170 -0.000000 -0.000000
								CHANNELS 3 Zrotation Yrotation Xrotation
								JOINT RightFingerBase
								{
									OFFSET 0.000000 0.000000 0.000000
									CHANNELS 3 Zrotation Yrotation Xrotation
									JOINT RightHandIndex1
									{
										OFFSET -0.622530 -0.000000 -0.000000
										CHANNELS 3 Zrotation Yrotation Xrotation
										End Site
										{
											OFFSET 0.000000 0.000000 0.000000
										}
									}
								}
								JOINT RThumb
								{
									OFFSET 0.000000 0.000000 0.000000
									CHANNELS 3 Zrotation Yrotation Xrotation
									End Site
									{
										OFFSET 0.000000 0.000000 0.000000
									}
								}
							}
						}
					}
				}
			}
		}
	}
}
MOTION
Frames: 5
Frame Time: 0.008333
3.023669 17.745579 37.883883 7.276528 -1.899169 -5.892094 -3.493007 3.878627 6.188492 -23.503263 -4.247006 -4.604178 2.050195 9.727040 34.741049 2.294009 -3.527332 1.263865 0.655200 -5.177300 -14.414800 2.157374 -2.147387 1.102762 -0.656250 13.619785 -28.042326 -0.953744 -8.738218 22.713208 7.047826 -21.950919 11.413916 -0.001000 0.200600 -0.551200 -2.862372 -2.482120 18.476690 3.963163 -3.484621 6.425848 8.915488 -1.878667 -8.666709 -7.747500 -11.935000 -3.066750 -2.570171 -15.112440 29.549196 -2.421200 -7.374200 12.075900 -1.275952 -0.009898 -0.925547 -87.611740 14.359692 18.310189 35.108387 -43.172488 -16.188174 0.287181 -2.327315 -10.656313 17.739124 47.121488 13.810500 -7.125000 0.000000 0.000000 -50.029400 76.623500 -38.873000 0.588605 0.600763 0.512507 77.363268 3.418137 -33.859897 -23.503187 33.598271 -7.379755 -0.292837 0.571883 -46.599673 -20.374297 -10.622643 4.192900 7.125000 0.000000 0.000000 5.860200 -41.906600 0.448900 
3.077921 17.762873 37.761277 7.403261 -1.990860 -5.977942 -3.569595 3.895119 6.218741 -23.805050 -4.410710 -4.249043 1.771596 9.409429 33.643110 2.107607 -2.946309 1.054197 0.609100 -4.995500 -13.895800 2.158470 -2.160929 1.127083 -0.759310 13.312238 -27.950847 -0.893256 -8.661883 22.473964 7.312788 -22.253128 10.369556 -0.003600 0.389400 -1.069900 -3.154685 -2.516795 18.453947 3.918222 -3.596848 6.400994 9.077191 -1.926367 -8.668943 -7.777050 -11.918620 -3.264870 -2.588814 -15.072858 29.737667 -2.442300 -7.359000 12.213900 -1.280554 0.026093 -0.936505 -87.637396 14.765590 18.419672 34.734433 -42.914677 -15.902527 0.277795 -2.347572 -10.156697 17.524970 47.722030 13.755500 -7.125000 0.000000 0.000000 -52.533200 76.848000 -41.215000 0.582380 0.570799 0.508539 78.168886 2.479790 -33.460456 -24.770025 34.963012 -8.154728 -0.311367 0.588973 -50.225660 -21.329212 -11.246090 4.658600 7.125000 0.000000 0.000000 5.076700 -42.678500 0.291600 
3.137628 17.779550 37.625391 7.475675 -1.859784 -5.801942 -3.621782 3.872999 6.188680 -24.070473 -4.837114 -4.316546 1.593080 9.224900 32.968370 2.018957 -2.662142 0.895957 0.530100 -4.665700 -12.957600 2.144140 -2.147875 1.144684 -0.743317 12.447539 -28.106892 -0.822127 -8.556399 22.062181 7.749962 -23.001460 9.367312 -0.006000 0.498900 -1.371000 -3.189162 -2.615302 18.356835 3.831230 -3.733583 6.322740 9.033912 -1.983489 -8.686009 -7.640908 -11.919001 -3.657141 -2.440605 -15.089324 29.795048 -2.434700 -7.333200 12.335200 -1.292097 0.051793 -0.943928 -87.527549 15.038137 18.721246 34.292291 -42.601166 -15.566044 0.279182 -2.356615 -9.492291 16.758488 48.025483 13.181700 -7.125000 0.000000 0.000000 -54.307400 76.680800 -42.584100 0.575721 0.568374 0.504988 78.955072 2.066857 -33.988626 -25.690285 35.971080 -8.773661 -0.342483 0.611358 -52.775066 -19.291912 -11.646836 4.333700 7.125000 0.000000 0.000000 6.953000 -42.909500 0.360600 
3.174688 17.808374 37.517917 6.853802 -2.554528 -6.004871 -3.712668 3.905699 6.227289 -23.343784 -4.375902 -4.454988 1.452986 9.088857 32.406684 2.023999 -2.564666 0.854557 0.466100 -4.379200 -12.146100 2.295888 -2.175667 1.184917 0.166247 12.537124 -27.848508 -0.754892 -8.479135 22.023191 8.443022 -24.074110 7.222421 -0.002000 0.287400 -0.789800 -2.848797 -2.417627 18.137965 3.900439 -3.410665 6.559297 8.790897 -1.871022 -8.358612 -7.155623 -11.974187 -3.715291 -2.403940 -15.238693 29.555064 -2.492100 -7.348300 12.175800 -1.307344 0.056178 -0.936846 -87.117066 15.166636 19.326074 33.642422 -42.141050 -15.081518 0.266876 -2.356519 -8.724005 16.129507 47.780184 12.621000 -7.125000 0.000000 0.000000 -53.837700 76.308200 -41.821100 0.591558 0.542473 0.502942 79.782251 1.983677 -34.693096 -26.518236 36.814005 -9.312357 -0.356674 0.623428 -55.186853 -19.479050 -11.945059 4.490900 7.125000 0.000000 0.000000 6.817000 -43.249000 0.296000 
3.197439 17.827934 37.364634 6.038540 -3.396097 -6.100612 -3.787126 3.893984 6.213086 -22.339737 -3.880817 -5.247141 1.454937 9.153568 32.453913 2.046476 -2.547030 1.111454 0.383800 -3.978400 -11.015800 2.469786 -2.174599 1.201261 1.297152 13.046283 -27.709840 -0.692906 -8.398082 22.055100 9.265806 -25.469154 4.677758 -0.017600 -0.856300 2.353400 -2.587744 -2.206641 18.463590 4.045133 -3.075537 6.615072 8.772877 -1.715840 -8.516885 -6.597818 -11.985077 -4.014830 -2.693782 -15.267709 29.733979 -2.723200 -7.317000 12.243500 -1.313406 0.062943 -0.941616 -86.694453 15.347252 19.729859 32.892670 -41.594560 -14.527560 0.242436 -2.354543 -8.017695 15.772518 47.286280 12.246200 -7.125000 0.000000 0.000000 -52.298600 75.920500 -40.138400 0.610437 0.530119 0.496231 80.570879 1.731119 -34.643784 -27.564153 37.777175 -9.954689 -0.357057 0.627326 -57.955022 -22.009044 -11.445741 4.927300 7.125000 0.000000 0.000000 4.420000 -42.989500 0.219800 
